<svg xmlns="http://www.w3.org/2000/svg" xmlns:xlink="http://www.w3.org/1999/xlink" viewBox="0 0 83.34 39.5">
  <defs>
    <clipPath id="clip-path" transform="translate(0)">
      <rect width="45.5" height="39.5" style="fill: none"/>
    </clipPath>
    <clipPath id="clip-path-2" transform="translate(0)">
      <rect x="53.34" width="30" height="39.5" style="fill: none"/>
    </clipPath>
  </defs>
  <title>Fichier 1</title>
  <g id="Calque_2" data-name="Calque 2">
    <g id="Calque_1-2" data-name="Calque 1">
      <g style="clip-path: url(#clip-path)">
        <path d="M1.09,11.34v1.31H1.7a.66.66,0,1,0,0-1.31ZM0,10.43H1.64c1.16,0,1.88.6,1.88,1.57a1.42,1.42,0,0,1-.84,1.35l1.66,2.32H3.05l-1.4-2.11H1.09v2.11H0Z" transform="translate(0)"/>
        <path d="M6.05,10l.86-1H8L7,10Zm-1,.44H8.1v.91h-2v1.21H7.79v.91H6.08v1.31h2v.9H5Z" transform="translate(0)"/>
        <path d="M10.42,11.34v1.31h.72a.64.64,0,0,0,.73-.67c0-.39-.27-.64-.73-.64Zm-1.07-.91H11.1C12.26,10.43,13,11,13,12s-.71,1.56-1.87,1.56h-.68v2.11H9.35Z" transform="translate(0)"/>
        <path d="M17,10.43h1.07v3.19a2,2,0,0,1-2.15,2.2,2,2,0,0,1-2.14-2.2V10.43h1.07v3.28a1.08,1.08,0,1,0,2.15,0Z" transform="translate(0)"/>
        <path d="M20.47,13.4v1.37h.6c.5,0,.81-.26.81-.7s-.31-.67-.81-.67Zm0-2.06v1.15h.45c.41,0,.65-.21.65-.58s-.24-.57-.65-.57Zm-1.08-.91H20.9c1.11,0,1.77.54,1.77,1.43a1.2,1.2,0,0,1-.56,1A1.34,1.34,0,0,1,23,14.13c0,1-.75,1.54-2,1.54H19.39Z" transform="translate(0)"/>
        <polygon points="24.08 10.44 25.16 10.44 25.16 14.71 27.17 14.71 27.17 15.67 24.08 15.67 24.08 10.44"/>
        <rect x="28.12" y="10.43" width="1.08" height="5.24"/>
        <path d="M34.74,13.05a1.71,1.71,0,1,0-3.41,0,1.71,1.71,0,1,0,3.41,0m1.49,3a1,1,0,0,0,.38-.06v.9a1.34,1.34,0,0,1-.56.1,2.51,2.51,0,0,1-1.66-.69l-.63-.56a2.78,2.78,0,0,1-.72.09,2.77,2.77,0,1,1,2.81-2.77,2.77,2.77,0,0,1-1.05,2.19l.32.3a1.63,1.63,0,0,0,1.11.5" transform="translate(0)"/>
        <path d="M40,10.43h1.08v3.19a2.15,2.15,0,1,1-4.29,0V10.43h1.07v3.28a1.07,1.07,0,1,0,2.14,0Z" transform="translate(0)"/>
        <polygon points="42.41 10.44 42.41 15.67 45.5 15.67 45.5 14.77 43.49 14.77 43.49 13.46 45.2 13.46 45.2 12.55 43.49 12.55 43.49 11.34 45.5 11.34 45.5 10.44 42.41 10.44"/>
        <polygon points="0.02 17.99 0.02 23.23 1.09 23.23 1.09 21.01 2.81 21.01 2.81 20.11 1.09 20.11 1.09 18.89 3.11 18.89 3.11 17.99 0.02 17.99"/>
        <path d="M5.13,18.89V20.2h.6c.46,0,.72-.23.72-.66a.63.63,0,0,0-.72-.65ZM4.05,18H5.67c1.17,0,1.89.59,1.89,1.56a1.43,1.43,0,0,1-.85,1.36l1.67,2.32H7.09L5.68,21.11H5.13v2.12H4.05Z" transform="translate(0)"/>
        <path d="M12,21l-.72-2-.73,2Zm-1.43-3H12l2,5.24H12.88l-.5-1.36H10.26l-.51,1.36H8.6Z" transform="translate(0)"/>
        <polygon points="14.84 17.99 16.22 17.99 18.59 21.74 18.59 17.99 19.67 17.99 19.67 23.23 18.29 23.23 15.92 19.46 15.92 23.23 14.84 23.23 14.84 17.99"/>
        <path d="M24.9,21.66l.85.65a2.68,2.68,0,0,1-1.82,1l-.66,1.08h-.95l.66-1.1a2.77,2.77,0,0,1,.53-5.49,2.8,2.8,0,0,1,2.24,1.06l-.85.65a1.67,1.67,0,0,0-1.39-.71,1.77,1.77,0,0,0,0,3.54,1.65,1.65,0,0,0,1.39-.72" transform="translate(0)"/>
        <path d="M29.41,21l-.73-2L28,21ZM28,18h1.41l2,5.24H30.25l-.51-1.36H27.62l-.5,1.36H26Z" transform="translate(0)"/>
        <rect x="32.21" y="17.99" width="1.08" height="5.24"/>
        <path d="M35.07,21.79a1.53,1.53,0,0,0,1.18.64c.42,0,.68-.22.68-.6,0-.94-2.42-.73-2.42-2.47a1.58,1.58,0,0,1,1.69-1.52,2.36,2.36,0,0,1,1.86.88l-.79.7a1.39,1.39,0,0,0-1.06-.65.56.56,0,0,0-.61.54c0,.94,2.42.72,2.42,2.5a1.62,1.62,0,0,1-1.76,1.57,2.4,2.4,0,0,1-2-.88Z" transform="translate(0)"/>
        <polygon points="39.15 17.99 42.24 17.99 42.24 18.89 40.22 18.89 40.22 20.11 41.93 20.11 41.93 21.01 40.22 21.01 40.22 22.32 42.24 22.32 42.24 23.23 39.15 23.23 39.15 17.99"/>
        <path d="M1.55,39.42l0-.12c-.52-.09-.59-.09-.38-.65l.21-.57H2c.26,0,.26.1.22.38h.15l.34-.93H2.55c-.13.22-.23.38-.51.38H1.48l.3-.81c.09-.25.15-.31.5-.31h.25c.36,0,.4.1.4.46h.14l.12-.63H1.05l0,.12c.42.08.45.12.26.65L.8,38.65c-.19.53-.27.57-.75.65l0,.12Zm3-1.54c.08-.25,0-.47-.16-.47s-.28.17-.52.67v-.29c0-.2-.06-.38-.25-.38s-.42.33-.57.67h.1c.11-.15.21-.24.28-.24s.15.14,0,.45L3,39.22c-.07.17,0,.28.18.28a.17.17,0,0,0,.19-.14l.41-1.08.36-.4Zm1.89-.56H6.25l-.18.18H6a1.85,1.85,0,0,0-1.65,1.7.29.29,0,0,0,.31.31c.23,0,.46-.32.71-.67V39c0,.36.08.55.26.55s.42-.33.57-.66h-.1c-.11.15-.2.23-.28.23s-.14-.14,0-.45ZM4.78,38.9c0-.47.53-1.11.83-1.11a.52.52,0,0,1,.18,0l-.31.82c-.18.21-.46.47-.58.47s-.12-.06-.12-.2m2-1.19H7.1l-.57,1.53a.18.18,0,0,0,.15.26,1.3,1.3,0,0,0,1-.75h-.1a1.53,1.53,0,0,1-.66.4l.52-1.44H8l.07-.22H7.55l.2-.56h-.2l-.37.56-.44.06Zm2.53,1H9.14a.8.8,0,0,1-.52.35c-.18,0-.28-.11-.28-.35a1.36,1.36,0,0,1,0-.29l1.08-.35c.21-.49,0-.71-.34-.71C8.6,37.41,8,38.25,8,39c0,.33.16.51.41.51s.6-.28.84-.74m-.36-1.07c.14,0,.26.11.2.39l-.67.15c.12-.31.31-.54.47-.54m2.38.19c.08-.25,0-.47-.16-.47s-.29.17-.52.67v-.29c0-.2-.06-.38-.25-.38s-.42.33-.57.67h.1c.11-.15.2-.24.28-.24s.15.14,0,.45l-.42.93c-.07.17,0,.28.18.28a.17.17,0,0,0,.19-.14l.41-1.08.36-.4Zm0,1.34c-.08.17,0,.28.17.28a.18.18,0,0,0,.2-.14l.41-1.08a1.45,1.45,0,0,1,.74-.47c.11,0,.1.09,0,.23l-.63,1.2a.18.18,0,0,0,.15.26,1,1,0,0,0,.83-.66h-.1a.75.75,0,0,1-.43.32l.54-1.08a.89.89,0,0,0,.11-.38.27.27,0,0,0-.29-.29c-.27,0-.54.3-.86.67v-.29c0-.2-.07-.38-.25-.38s-.23.1-.34.24v0c.2,0,.29.29.15.6Zm3.42-2.35a.26.26,0,0,0,.26-.26.26.26,0,0,0-.26-.25.25.25,0,0,0-.25.25.26.26,0,0,0,.25.26m-.11.76a.15.15,0,0,0-.12-.22,1,1,0,0,0-.83.67h.1a.77.77,0,0,1,.43-.33l-.59,1.53a.15.15,0,0,0,.12.22,1,1,0,0,0,.79-.66h-.1a.75.75,0,0,1-.43.32Zm.49.08h.35l-.56,1.53a.18.18,0,0,0,.15.26,1.32,1.32,0,0,0,1-.75H16a1.53,1.53,0,0,1-.66.4l.52-1.44h.53l.07-.22h-.52l.2-.56H15.9l-.37.56-.43.06Zm2.32-.5.76-.69v-.09h-.41l-.47.78Zm.21,1.55H17.5c-.17.19-.34.35-.52.35s-.28-.11-.28-.35a1.36,1.36,0,0,1,0-.29l1.08-.35c.21-.49,0-.71-.34-.71-.51,0-1.09.84-1.09,1.58,0,.33.16.51.41.51s.59-.28.84-.74m-.37-1.07c.15,0,.27.11.21.39l-.67.15c.11-.31.31-.54.46-.54" transform="translate(0)"/>
        <path d="M2.32,31.63l.75-.52V31H2.61l-.41.6ZM2,33.24c.26,0,.27.1.23.38h.14l.35-.93H2.57c-.13.22-.23.38-.51.38H1.5l.28-.77c.09-.26.15-.31.5-.31h.25c.36,0,.4.1.4.46h.14l.12-.63H1.05l0,.12c.42.08.45.12.26.65L.8,33.85c-.19.53-.27.57-.75.65l0,.12H2.4L2.83,34H2.67a1.58,1.58,0,0,1-1.1.5c-.63,0-.57,0-.36-.6l.22-.61Zm2.72,1.64c0-.24-.22-.33-.58-.44s-.45-.12-.45-.22.06-.17.2-.24a.9.9,0,0,0,.83-.86.54.54,0,0,0,0-.22h.43l.07-.21H4.5a.57.57,0,0,0-.28-.08.9.9,0,0,0-.89.85.5.5,0,0,0,.41.51c-.25.11-.39.24-.39.39a.25.25,0,0,0,.1.21c-.58.17-.81.36-.81.64s.36.37.78.37c.71,0,1.3-.38,1.3-.7m-.84-1.05c-.13,0-.18-.11-.18-.23,0-.34.19-.84.48-.84.13,0,.18.1.18.23,0,.34-.19.84-.48.84m-.81,1.24c0-.2.2-.33.49-.44a2.7,2.7,0,0,0,.41.16c.3.09.41.13.41.22s-.32.33-.76.33-.55-.08-.55-.27m4-2.55H6.87l-.19.18h0A1.86,1.86,0,0,0,5,34.38a.3.3,0,0,0,.32.32c.23,0,.46-.32.71-.67v.12c0,.36.07.55.26.55s.42-.34.57-.67h-.1c-.11.15-.2.24-.28.24s-.14-.14,0-.45ZM5.39,34.1c0-.47.54-1.11.83-1.11a.58.58,0,0,1,.19,0l-.31.82c-.18.21-.46.47-.59.47s-.12-.06-.12-.2m2.06.26,1.09-2.81,0,0-.68.08v.08l.13.1c.12.09.09.18,0,.46l-.85,2.21a.18.18,0,0,0,.16.26A.94.94,0,0,0,8,34h-.1a.85.85,0,0,1-.47.33m2.07-2.3a.25.25,0,1,0-.26-.25.26.26,0,0,0,.26.25m-.11.77a.16.16,0,0,0-.13-.22,1,1,0,0,0-.82.66h.1A.75.75,0,0,1,9,33l-.6,1.53a.16.16,0,0,0,.13.22A1,1,0,0,0,9.31,34h-.1a.77.77,0,0,1-.43.33Zm.48.07h.36l-.57,1.54a.18.18,0,0,0,.16.26,1.32,1.32,0,0,0,1-.75h-.1a1.49,1.49,0,0,1-.65.4l.52-1.45h.53l.07-.21h-.52l.2-.56H10.7l-.37.56-.44.06Zm2.33-.49.75-.7v-.08h-.4l-.47.78ZM12.43,34H12.3a.84.84,0,0,1-.53.35c-.18,0-.27-.11-.27-.35a1.36,1.36,0,0,1,0-.29l1.08-.35c.2-.5,0-.71-.34-.71-.51,0-1.09.84-1.09,1.58,0,.33.16.51.41.51s.59-.28.84-.74m-.37-1.07c.14,0,.27.11.2.38l-.67.16c.12-.31.32-.54.47-.54" transform="translate(0)"/>
        <path d="M2.46,27H1l0,.12c.42.08.46.12.26.65L.8,29.05c-.19.52-.27.57-.75.65l0,.12H2.17L2.63,29H2.47a1.47,1.47,0,0,1-1.05.65c-.36,0-.41-.06-.21-.6l.46-1.26c.19-.53.27-.57.75-.65ZM4,27.26A.26.26,0,0,0,4.28,27a.26.26,0,0,0-.52,0,.26.26,0,0,0,.26.25M3.91,28a.15.15,0,0,0-.13-.22,1,1,0,0,0-.82.66h.1a.75.75,0,0,1,.43-.32l-.6,1.52A.16.16,0,0,0,3,29.9a1,1,0,0,0,.79-.67h-.1a.81.81,0,0,1-.43.33Zm2.12.2c0-.31-.12-.42-.34-.42s-.53.28-.78.63l.65-1.69,0,0-.68.08v.08L5,27c.12.09.09.18,0,.46l-.7,1.78a2.42,2.42,0,0,0-.12.33c0,.18.26.36.49.36A2,2,0,0,0,6,28.23M4.8,29.59c-.1,0-.25-.1-.25-.18a1.59,1.59,0,0,1,.1-.3l.18-.46a1.2,1.2,0,0,1,.63-.45c.09,0,.17.06.17.2,0,.42-.4,1.19-.83,1.19m2.64-.43H7.31a.84.84,0,0,1-.53.35c-.18,0-.27-.11-.27-.35a1.53,1.53,0,0,1,0-.3l1.08-.35c.21-.49,0-.7-.34-.7-.51,0-1.09.84-1.09,1.58,0,.33.16.51.41.51s.59-.28.84-.74m-.37-1.07c.15,0,.27.11.2.38l-.66.16c.11-.31.31-.54.46-.54m2.39.19c.07-.25,0-.47-.16-.47s-.29.17-.52.67v-.29c0-.2-.07-.38-.25-.38s-.42.33-.57.66h.1c.1-.15.2-.24.28-.24s.14.15,0,.46l-.42.92c-.08.18,0,.29.17.29a.18.18,0,0,0,.2-.14l.41-1.08c.12-.14.22-.27.35-.4Zm.28-.18H10l-.57,1.54a.18.18,0,0,0,.16.26,1.32,1.32,0,0,0,1-.75h-.1a1.39,1.39,0,0,1-.65.39l.52-1.44h.53l.07-.22h-.52l.2-.55h-.21l-.37.55L9.74,28ZM12,27.61l.76-.7v-.08h-.41l-.46.78Zm.22,1.55h-.13a.84.84,0,0,1-.53.35c-.18,0-.27-.11-.27-.35a1.53,1.53,0,0,1,0-.3l1.07-.35c.21-.49,0-.7-.34-.7-.5,0-1.08.84-1.08,1.58,0,.33.16.51.4.51s.6-.28.85-.74m-.37-1.07c.14,0,.27.11.2.38l-.67.16c.12-.31.31-.54.47-.54" transform="translate(0)"/>
        <path d="M5.68,5s0,0,.05,0H5.62s0,0,0,0L5.4,5c-.1,0-.18.1-.28.12s-.27.17-.43.23,0,0,0,0,.07,0,.09-.09,0,0,0,0a3.07,3.07,0,0,1,.38-.34v0s.11-.08.14-.14a.2.2,0,0,1,.13-.12s0,0,0,0-.11,0-.16,0l.08,0,0,0s0-.06.07-.07a.3.3,0,0,0,.16,0c-.09,0-.2,0-.29,0a.67.67,0,0,1,.33-.39s0,0,0,0A.12.12,0,0,1,5.46,4a1.67,1.67,0,0,1,.32.08s0,0,0,0,.15,0,.21.06-.08,0-.12,0A3.48,3.48,0,0,1,7,4.66a3.61,3.61,0,0,1-.92.27H6S6,5,6,5a.27.27,0,0,0-.13,0,.15.15,0,0,1-.17,0M5.4,5.9h0L5.25,6l-.18.09h0a.41.41,0,0,0-.13.1l0,0h0v0h0l0,0v0s0,0,0,0H4.73l0,0a.6.6,0,0,0-.08.08h0l0,0h0l0-.05h0v0l0,0h0l0,0h0l0,0v0h0v0h0v0h0v0h0L4.8,6h0l0,0s0,0,0,0l0,0h0l.06-.07,0,0h0l0,0h0c.13-.12.34-.11.51-.19s.15,0,.21,0a.25.25,0,0,1,.12,0L5.4,5.9M5.64,6l0,0s0,0,0,0l-.1.07h0l0,0s-.09,0-.07,0l.1-.09,0-.06,0,0s.08,0,.07,0M5,4l0,0a.06.06,0,0,1-.05,0h0S5,4,5,4,5,4,5,4m-1.1.87v0a3.94,3.94,0,0,0,.42-.67,1.83,1.83,0,0,0,.46-.37,2.41,2.41,0,0,1,.74-.58.53.53,0,0,1,.35,0c0,.05-.11,0-.16.07h0a.06.06,0,0,0,0,0c-.13.15-.32.21-.43.38S5.13,4,5,4s0,0,0,0a4.41,4.41,0,0,0-1,.91m2,.28s-.08,0-.07,0,.11-.06.16-.09.07,0,.09,0,.07,0,.09.06-.18,0-.27.07m2,.95.23-.24h0a4.67,4.67,0,0,1,.44-.45l.14-.11s0,0,0,0-.11.08-.17.1,0,0,0,0l.14-.11h0s0,0,0,0a.58.58,0,0,0-.42.2s0,0-.07,0c-.2.06-.34.23-.54.31v0c-.08,0-.16.07-.24.09a1.24,1.24,0,0,1-.33,0,3.86,3.86,0,0,0-.49.09h0a1.09,1.09,0,0,0-.25.1h0l0,0a.34.34,0,0,1-.09.08,1.18,1.18,0,0,0-.22.17h0l-.22.21h0l0-.06,0-.06a.35.35,0,0,1,.05-.08s0,0,0,0h0a1.24,1.24,0,0,1,.23-.17h0l0,0h0l-.06,0S6,6.15,6,6.15H6v0H6V6H6L6,6S6,6,6,6a.24.24,0,0,1,.09-.08h0l.16-.08,0,0a.68.68,0,0,0-.21.1h0a0,0,0,0,1,0,0H6s0,0,.08-.06h0c.42-.33,1-.25,1.5-.42l.12-.08c.06,0,.12-.09.2-.13a.61.61,0,0,0,.22-.3,0,0,0,0,0,0,0,1.91,1.91,0,0,1-.59.43,2.35,2.35,0,0,1-.87.16s0,0,.06,0,0-.05.06-.07h0s0,0,0,0h.06c0-.06-.12,0-.19,0s0-.07,0-.08h0a.1.1,0,0,1,0-.06l.57-.31s-.06,0-.1,0,0,0,0,0,.27-.12.41-.17c0,0-.09,0-.14,0s0,0,.08,0v0h0s0,0,.08,0,0,0,0,0a.24.24,0,0,1,.17-.07s0,0,0,0h0s0,0,0-.06A.91.91,0,0,0,8,4s0,0,0,0a1.07,1.07,0,0,1-.55.25H7.33a.27.27,0,0,1-.23,0L7,4.16A1.5,1.5,0,0,0,6.63,4a2.94,2.94,0,0,0-1-.15,2.52,2.52,0,0,1,.47-.13,2.15,2.15,0,0,1,.67-.13H6.62a2.3,2.3,0,0,0-.57.08c-.13,0-.25.08-.39.1s-.12.11-.21.1v0A.74.74,0,0,1,6,3.5a2.37,2.37,0,0,1,.7,0,3.22,3.22,0,0,1,.51.09c.06,0,.08.1.13.12s.16,0,.24,0,0,0,0-.08.12,0,.17,0-.09-.19-.15-.28l0,0a1.21,1.21,0,0,0,.32.27c.06,0,.22.06.2,0a2.21,2.21,0,0,0-.31-.39v0s0,0,0,0v0S7.71,3,7.68,3s0-.16,0-.24a1.74,1.74,0,0,1,0-.22c0-.22-.09-.42-.12-.63s.15-.45.27-.67A1.07,1.07,0,0,1,8.11.82,1.2,1.2,0,0,1,8.36.4,1.27,1.27,0,0,1,8.77.13,3.82,3.82,0,0,1,9.13,0H0V7H6.46a6.22,6.22,0,0,1,.86-.44A3.73,3.73,0,0,0,8,6.14" transform="translate(0)" style="fill: #293273"/>
        <path d="M19.35,0H11.78l.07,0,.2.1a.72.72,0,0,1,.25.21s.07.12,0,.17,0,.18-.11.2a.52.52,0,0,1-.28,0l-.16,0a1,1,0,0,1,.52.36.19.19,0,0,0,.12,0s0,0,0,0-.06,0,0,.07h0c.06,0,.05-.15.14-.11a.14.14,0,0,1,.05.19.58.58,0,0,1-.15.13.09.09,0,0,0,0,.1.32.32,0,0,1,.06.15c0,.1,0,.2.09.29a1.8,1.8,0,0,1,.1.6c0,.1-.06.19,0,.3a1.43,1.43,0,0,0,.15.27c.05.08.11.14.15.21s.22.27.16.42-.19.08-.28.14,0,.17,0,.23-.08.2-.17.24.08,0,.09,0,.08.11,0,.17-.21.12-.13.24a.37.37,0,0,1,0,.29.34.34,0,0,1-.24.2.7.7,0,0,1-.25,0l-.08,0c-.23,0-.46-.09-.68-.09l-.19,0-.16.14h0l0,0,0,0h0a1.3,1.3,0,0,0-.1.15h0v0a1.22,1.22,0,0,0-.1.24.8.8,0,0,0,0,.62s.44.15.74.28l.31.16h7.43Z" transform="translate(0)" style="fill: #e00914"/>
        <path d="M12.23,2.54c.06,0,.14,0,.14,0s-.19.13-.27.23h0s0,.1-.07.1-.08,0-.12,0a.26.26,0,0,0,.2.08,0,0,0,0,1,0,0h.06V3.1c0,.06-.11,0-.16,0a.51.51,0,0,0,.3,0c.08,0,0-.16.06-.22s0,0,0,0,.05-.07.08-.08.07,0,.08,0-.05,0,0-.06.15-.14.12-.21-.12,0-.19-.07-.14,0-.22,0a.66.66,0,0,0-.2.06.64.64,0,0,0-.26.13,1.47,1.47,0,0,1,.3-.08.81.81,0,0,1,.22,0" transform="translate(0)" style="fill: #9e9e9c"/>
      </g>
      <g style="clip-path: url(#clip-path-2)">
        <path d="M56.16,36.27a.47.47,0,0,1-.46-.48.45.45,0,1,1,.9,0,.44.44,0,0,1-.44.47m0-1.39a.93.93,0,0,0-1,.92.92.92,0,0,0,.95.91.92.92,0,1,0,0-1.83" transform="translate(0)" style="fill: #1c3d70"/>
        <polygon points="57.5 34.91 58.92 34.91 58.92 35.34 57.99 35.34 57.99 35.64 58.83 35.64 58.83 36.05 57.99 36.05 57.99 36.67 57.5 36.67 57.5 34.91" style="fill: #1c3d70"/>
        <polygon points="59.33 34.91 60.74 34.91 60.74 35.34 59.82 35.34 59.82 35.64 60.65 35.64 60.65 36.05 59.82 36.05 59.82 36.67 59.33 36.67 59.33 34.91" style="fill: #1c3d70"/>
        <rect x="61.15" y="34.91" width="0.49" height="1.76" style="fill: #1c3d70"/>
        <path d="M63.38,36.05a.46.46,0,0,1-.4.21.47.47,0,0,1,0-.94.47.47,0,0,1,.39.21l.37-.29a.88.88,0,0,0-.75-.36.92.92,0,1,0,0,1.83.88.88,0,0,0,.78-.4Z" transform="translate(0)" style="fill: #1c3d70"/>
        <polygon points="64.13 34.91 65.56 34.91 65.56 35.33 64.62 35.33 64.62 35.59 65.47 35.59 65.47 35.98 64.62 35.98 64.62 36.26 65.57 36.26 65.57 36.67 64.13 36.67 64.13 34.91" style="fill: #1c3d70"/>
        <polygon points="66.92 34.91 68.34 34.91 68.34 35.34 67.41 35.34 67.41 35.64 68.25 35.64 68.25 36.05 67.41 36.05 67.41 36.67 66.92 36.67 66.92 34.91" style="fill: #1c3d70"/>
        <path d="M69.59,35.76h-.32v-.43h.32c.16,0,.27.08.27.22s-.1.21-.27.21m.39.3a.56.56,0,0,0,.37-.55.58.58,0,0,0-.16-.41.79.79,0,0,0-.58-.19h-.84v1.76h.5v-.53h.21l.36.53h.57Z" transform="translate(0)" style="fill: #1c3d70"/>
        <path d="M71.79,36l-.2-.5-.2.5Zm-.43-1.08h.47l.76,1.77h-.53l-.13-.31h-.68l-.13.31h-.51Z" transform="translate(0)" style="fill: #1c3d70"/>
        <polygon points="72.91 34.91 73.37 34.91 74.1 35.84 74.1 34.91 74.58 34.91 74.58 36.67 74.16 36.67 73.4 35.71 73.4 36.67 72.91 36.67 72.91 34.91" style="fill: #1c3d70"/>
        <path d="M76.33,36.05a.46.46,0,0,1-.4.21.47.47,0,0,1,0-.94.47.47,0,0,1,.39.21l.37-.29a.88.88,0,0,0-.75-.36.92.92,0,0,0-.25,1.8l-.2.27.38.16L76,36.7a.85.85,0,0,0,.69-.39Z" transform="translate(0)" style="fill: #1c3d70"/>
        <path d="M78,36l-.2-.5-.2.5Zm-.43-1.08h.47l.76,1.77h-.53l-.13-.31h-.68l-.13.31h-.52Z" transform="translate(0)" style="fill: #1c3d70"/>
        <rect x="79.08" y="34.91" width="0.49" height="1.76" style="fill: #1c3d70"/>
        <path d="M80.82,35.58c-.25-.06-.31-.1-.31-.18s.06-.11.18-.11a.88.88,0,0,1,.49.17l.25-.34a1.09,1.09,0,0,0-.73-.24c-.42,0-.69.24-.69.57s.3.47.67.55.3.1.3.18-.07.12-.2.12a.92.92,0,0,1-.58-.21l-.27.32a1.22,1.22,0,0,0,.83.29c.43,0,.72-.21.72-.57s-.25-.46-.66-.55" transform="translate(0)" style="fill: #1c3d70"/>
        <path d="M54,39h-.2v-.89H54A.45.45,0,1,1,54,39m0-1.32h-.69v1.75H54a.89.89,0,0,0,1-.88.87.87,0,0,0-1-.87" transform="translate(0)" style="fill: #1c3d70"/>
        <polygon points="55.43 37.71 55.43 39.47 56.87 39.47 56.87 39.05 55.92 39.05 55.92 38.77 56.77 38.77 56.77 38.39 55.92 38.39 55.92 38.12 56.86 38.12 56.86 37.71 55.43 37.71" style="fill: #1c3d70"/>
        <polygon points="58.24 37.71 58.24 39.47 59.59 39.47 59.59 39.04 58.73 39.04 58.73 37.71 58.24 37.71" style="fill: #1c3d70"/>
        <path d="M60.8,38.27l.2.5h-.4Zm-.23-.58-.76,1.77h.52l.13-.31h.68l.13.31h.52L61,37.69Z" transform="translate(0)" style="fill: #1c3d70"/>
        <path d="M63.82,39.07h-.38v-.32h.38c.16,0,.24.06.24.16s-.08.16-.24.16m-.38-1h.32c.15,0,.23,0,.23.15s-.09.16-.24.16h-.31Zm.76.44a.39.39,0,0,0,.27-.39.4.4,0,0,0-.11-.29.68.68,0,0,0-.49-.15H63v1.75h.92c.42,0,.67-.18.67-.48a.45.45,0,0,0-.35-.44" transform="translate(0)" style="fill: #1c3d70"/>
        <rect x="64.94" y="37.71" width="0.49" height="1.76" style="fill: #1c3d70"/>
        <path d="M66.79,39.06a.48.48,0,1,1,.45-.47.46.46,0,0,1-.45.47m0-1.39a.92.92,0,1,0,.95.91.92.92,0,0,0-.95-.91" transform="translate(0)" style="fill: #1c3d70"/>
        <path d="M68.84,39h-.2v-.89h.2a.45.45,0,1,1,0,.89m0-1.32h-.69v1.75h.68a.89.89,0,0,0,1-.88.87.87,0,0,0-1-.87" transform="translate(0)" style="fill: #1c3d70"/>
        <rect x="70.27" y="37.71" width="0.49" height="1.76" style="fill: #1c3d70"/>
        <polygon points="72.45 37.71 72.05 38.82 71.64 37.71 71.1 37.71 71.81 39.48 72.27 39.48 72.99 37.71 72.45 37.71" style="fill: #1c3d70"/>
        <polygon points="73.33 37.71 73.33 39.47 74.77 39.47 74.77 39.05 73.81 39.05 73.81 38.77 74.67 38.77 74.67 38.39 73.81 38.39 73.81 38.12 74.75 38.12 74.75 37.71 73.33 37.71" style="fill: #1c3d70"/>
        <path d="M76.09,38.55h-.32v-.42h.32c.16,0,.27.07.27.21s-.1.21-.27.21m.39.3a.56.56,0,0,0,.37-.54.55.55,0,0,0-.16-.42.84.84,0,0,0-.58-.18h-.83v1.75h.49v-.53H76l.36.53h.57Z" transform="translate(0)" style="fill: #1c3d70"/>
        <path d="M78.05,38.37c-.25-.06-.31-.09-.31-.17s.06-.12.18-.12a.91.91,0,0,1,.49.17l.25-.34a1.14,1.14,0,0,0-.73-.23c-.43,0-.69.23-.69.56s.29.47.67.55.3.1.3.18-.07.12-.2.12a.92.92,0,0,1-.58-.21l-.27.32a1.22,1.22,0,0,0,.83.29c.43,0,.72-.21.72-.57s-.26-.46-.66-.55" transform="translate(0)" style="fill: #1c3d70"/>
        <rect x="79.12" y="37.71" width="0.49" height="1.76" style="fill: #1c3d70"/>
        <polygon points="80 37.71 80 38.13 80.53 38.13 80.53 39.47 81.02 39.47 81.02 38.13 81.55 38.13 81.55 37.71 80 37.71" style="fill: #1c3d70"/>
        <path d="M81.9,37.71v1.75h1.44v-.41h-1v-.28h.85v-.38h-.85v-.27h.94v-.41Zm.53-.13h.36l.37-.26-.46-.14Z" transform="translate(0)" style="fill: #1c3d70"/>
        <polygon points="73.52 25.44 68.82 25.44 68.82 27.6 72.48 27.6 72.48 29.84 68.82 29.84 68.82 33.33 66.15 33.33 66.15 23.13 73.52 23.13 73.52 25.44" style="fill: #1c3d70"/>
        <path d="M59,25.42a2.81,2.81,0,1,0,2.9,2.81A2.84,2.84,0,0,0,59,25.42m5.69,2.81A5.39,5.39,0,0,1,59,33.61a5.39,5.39,0,1,1,0-10.76,5.4,5.4,0,0,1,5.69,5.38" transform="translate(0)" style="fill: #1c3d70"/>
        <path d="M77.86,31.27h1.23c1.34,0,1.55-.63,1.55-1.08s-.28-1.08-1.55-1.08H77.86Zm0-4.13h.8c.69,0,1.26-.25,1.26-1s-.45-1-1.26-1h-.8Zm-2.67-4h4.1c2.45,0,3.08,1.35,3.08,2.57a2.35,2.35,0,0,1-1.21,2.19,2.41,2.41,0,0,1,2.18,2.44c0,1.69-1,3-3.69,3H75.19Z" transform="translate(0)" style="fill: #1c3d70"/>
        <path d="M63.86,8.67l0,0a7.24,7.24,0,0,1-4.19,1.72H64s1.74,0,5.22-3.44a7.87,7.87,0,0,0-5.33,1.7" transform="translate(0)" style="fill: #12a5df"/>
        <path d="M73.58,14.74c.08.2.17.39.25.57A8.88,8.88,0,0,1,69.21,13,8.14,8.14,0,0,0,64,10.41h5.24s2.63,0,4.37,4.33" transform="translate(0)" style="fill: #09a64b"/>
        <path d="M69.19,7l0,0a11.29,11.29,0,0,1,7-3.43,10.18,10.18,0,0,1,2,3.43H71q-1,0-1.77,0" transform="translate(0)" style="fill: #5dc4f1"/>
        <path d="M59.6,10.41c.14,0,4.41.08,7,5.2a9,9,0,0,0,5.15,4.65,10.63,10.63,0,0,1-3.4.56A10.45,10.45,0,0,1,57.85,10.41H59.6" transform="translate(0)" style="fill: #c4db9c"/>
        <path d="M68.34,0A10.45,10.45,0,0,0,57.85,10.41h1.79a7.24,7.24,0,0,0,4.19-1.72A10.14,10.14,0,0,0,66.59,5.2,9,9,0,0,1,71.74.56,10.63,10.63,0,0,0,68.34,0" transform="translate(0)" style="fill: #1c3d70"/>
        <path d="M64,10.41s1.74,0,5.22-3.44q.8,0,1.77,0h7.27a10.2,10.2,0,0,1,.6,3.47H64Z" transform="translate(0)" style="fill: #9ad7f7"/>
        <path d="M76.19,3.51a11.29,11.29,0,0,0-7,3.43l0,0a7.87,7.87,0,0,0-5.33,1.7l0,0A10.14,10.14,0,0,0,66.59,5.2,9,9,0,0,1,71.74.56a10.55,10.55,0,0,1,4.45,2.95" transform="translate(0)" style="fill: #0f82c5"/>
        <path d="M66.59,15.61c-2.58-5.12-6.85-5.2-7-5.2H64A8.14,8.14,0,0,1,69.21,13a8.88,8.88,0,0,0,4.62,2.3,6.65,6.65,0,0,0,1.85,2.53,10.51,10.51,0,0,1-3.94,2.42,9,9,0,0,1-5.15-4.65" transform="translate(0)" style="fill: #9fca7e"/>
        <path d="M73.83,15.31c-.08-.18-.17-.37-.25-.57-1.74-4.33-4.37-4.33-4.37-4.33h9.62a10.23,10.23,0,0,1-1.41,5.2h-.34a16.34,16.34,0,0,1-3.25-.3" transform="translate(0)" style="fill: #0f823a"/>
        <path d="M73.83,15.31a16.34,16.34,0,0,0,3.25.3h.34a10.15,10.15,0,0,1-1.74,2.23,6.65,6.65,0,0,1-1.85-2.53" transform="translate(0)" style="fill: #6ab96f"/>
      </g>
    </g>
  </g>
</svg>
