<?xml version="1.0" encoding="utf-8"?>
<!-- Generator: Adobe Illustrator 24.0.2, SVG Export Plug-In . SVG Version: 6.00 Build 0)  -->
<svg version="1.1" id="Calque_1" xmlns="http://www.w3.org/2000/svg" xmlns:xlink="http://www.w3.org/1999/xlink" x="0px" y="0px"
	 viewBox="0 0 1057.3 595.3" style="enable-background:new 0 0 1057.3 595.3;" xml:space="preserve">
<style type="text/css">
	.st0{clip-path:url(#SVGID_2_);fill:#B2DFF4;}
	.st1{clip-path:url(#SVGID_2_);fill:#EDEDED;}
	.st2{clip-path:url(#SVGID_2_);fill:#00A6E2;}
	.st3{clip-path:url(#SVGID_2_);fill:#DADADA;}
	.st4{clip-path:url(#SVGID_2_);fill:#C6C6C6;}
	.st5{clip-path:url(#SVGID_2_);fill:#5BC5F2;}
	.st6{clip-path:url(#SVGID_2_);fill:#0083CB;}
	.st7{clip-path:url(#SVGID_4_);fill:#010202;}
	.st8{clip-path:url(#SVGID_4_);fill:#293273;}
	.st9{clip-path:url(#SVGID_4_);fill:#E00914;}
	.st10{clip-path:url(#SVGID_4_);fill:#9E9E9C;}
	.st11{clip-path:url(#SVGID_6_);fill:#1C3D70;}
	.st12{clip-path:url(#SVGID_6_);fill:#12A5DF;}
	.st13{clip-path:url(#SVGID_6_);fill:#09A64B;}
	.st14{clip-path:url(#SVGID_6_);fill:#5DC4F1;}
	.st15{clip-path:url(#SVGID_6_);fill:#C4DB9C;}
	.st16{clip-path:url(#SVGID_6_);fill:#9AD7F7;}
	.st17{clip-path:url(#SVGID_6_);fill:#0F82C5;}
	.st18{clip-path:url(#SVGID_6_);fill:#9FCA7E;}
	.st19{clip-path:url(#SVGID_6_);fill:#0F823A;}
	.st20{clip-path:url(#SVGID_6_);fill:#6AB96F;}
	.st21{fill:#5DC3F0;}
	.st22{clip-path:url(#SVGID_8_);fill:#010202;}
	.st23{clip-path:url(#SVGID_8_);fill:#293273;}
	.st24{clip-path:url(#SVGID_8_);fill:#E00914;}
	.st25{clip-path:url(#SVGID_8_);fill:#9E9E9C;}
	.st26{clip-path:url(#SVGID_10_);fill:#1C3D70;}
	.st27{clip-path:url(#SVGID_10_);fill:#12A5DF;}
	.st28{clip-path:url(#SVGID_10_);fill:#09A64B;}
	.st29{clip-path:url(#SVGID_10_);fill:#5DC4F1;}
	.st30{clip-path:url(#SVGID_10_);fill:#C4DB9C;}
	.st31{clip-path:url(#SVGID_10_);fill:#9AD7F7;}
	.st32{clip-path:url(#SVGID_10_);fill:#0F82C5;}
	.st33{clip-path:url(#SVGID_10_);fill:#9FCA7E;}
	.st34{clip-path:url(#SVGID_10_);fill:#0F823A;}
	.st35{clip-path:url(#SVGID_10_);fill:#6AB96F;}
	.st36{clip-path:url(#SVGID_14_);fill:#010202;}
	.st37{clip-path:url(#SVGID_14_);fill:#293273;}
	.st38{clip-path:url(#SVGID_14_);fill:#E00914;}
	.st39{clip-path:url(#SVGID_14_);fill:#9E9E9C;}
	.st40{clip-path:url(#SVGID_16_);fill:#1C3D70;}
	.st41{clip-path:url(#SVGID_16_);fill:#12A5DF;}
	.st42{clip-path:url(#SVGID_16_);fill:#09A64B;}
	.st43{clip-path:url(#SVGID_16_);fill:#5DC4F1;}
	.st44{clip-path:url(#SVGID_16_);fill:#C4DB9C;}
	.st45{clip-path:url(#SVGID_16_);fill:#9AD7F7;}
	.st46{clip-path:url(#SVGID_16_);fill:#0F82C5;}
	.st47{clip-path:url(#SVGID_16_);fill:#9FCA7E;}
	.st48{clip-path:url(#SVGID_16_);fill:#0F823A;}
	.st49{clip-path:url(#SVGID_16_);fill:#6AB96F;}
</style>
<g>
	<g>
		<defs>
			<rect id="SVGID_1_" x="576.7" y="179.5" width="479.5" height="414.7"/>
		</defs>
		<clipPath id="SVGID_2_">
			<use xlink:href="#SVGID_1_"  style="overflow:visible;"/>
		</clipPath>
		<path class="st0" d="M1063.5,199.6c-118,37.3-178.8,124.1-211.1,188.6c-31.7,63.4-69.9,107.5-107.6,138.1
			c-0.2,0.2-0.5,0.4-0.7,0.6c0.7-0.6,1.4-1.2,2.1-1.7c61-49.1,116.8-63.1,209.2-66.6c0.4-0.4,0.7-0.7,1.1-1.1
			c4.9-4.9,10-9.8,15.2-14.7c62.6-58.2,149.9-112.8,261.8-122.5c7.4-0.9,14.4-1.7,21.1-2.3V186.7
			C1197.7,171.9,1120.6,181.6,1063.5,199.6"/>
		<path class="st1" d="M743.7,527.3L743.7,527.3L743.7,527.3z"/>
		<path class="st1" d="M743.6,527.4c0,0,0.1-0.1,0.1-0.1l0,0c0.1-0.1,0.3-0.2,0.4-0.3c0.2-0.2,0.5-0.4,0.7-0.6
			C744.4,526.7,744,527,743.6,527.4"/>
		<path class="st2" d="M746.2,525.2c-0.7,0.6-1.4,1.1-2.1,1.7c-0.1,0.1-0.3,0.2-0.4,0.3c-0.2,0.2-0.4,0.3-0.7,0.5
			c-9.3,7.6-18.5,14.3-27.7,20.4c-8,5.3-15.9,10-23.7,14.2c-7.8,4.2-15.3,7.9-22.7,11.1c-4.2,1.9-8.3,3.6-12.4,5.1
			c-5.1,2-10,3.7-14.7,5.3c-7.6,2.5-14.8,4.5-21.4,6.2c-0.8,0.2-1.7,0.4-2.5,0.6c-3.3,0.8-6.4,1.4-9.4,2c-1.2,0.2-2.4,0.5-3.6,0.7v0
			v0c-1,0.2-1.9,0.3-2.8,0.5c-1.4,0.2-2.7,0.4-4,0.6c-1.3,0.2-2.5,0.4-3.8,0.5c-1.2,0.2-2.4,0.3-3.5,0.4c-3.9,0.4-7.3,0.7-10.1,0.8
			c-1.6,0.1-3,0.1-4.1,0.1h27.9v0h141.6h2.1c0,0,69,0,207.1-137.7C863,462.2,807.3,476.1,746.2,525.2"/>
		<path class="st1" d="M743.7,527.3c0.1-0.1,0.3-0.2,0.4-0.3C744,527.1,743.8,527.2,743.7,527.3"/>
		<path class="st3" d="M743.7,527.3c0.1-0.1,0.3-0.2,0.4-0.3C744,527.1,743.8,527.2,743.7,527.3"/>
		<path class="st1" d="M744.1,527c-0.1,0.1-0.3,0.2-0.4,0.3C743.8,527.2,744,527.1,744.1,527"/>
		<path class="st3" d="M744.1,527c-0.1,0.1-0.3,0.2-0.4,0.3C743.8,527.2,744,527.1,744.1,527"/>
		<path class="st3" d="M1025.9,457.6c-25.8,0-49.1,0.3-70.5,1.1C817.4,596.3,748.3,596.3,748.3,596.3h504.9V457.6H1025.9z"/>
		<path class="st5" d="M1025.9,457.6L1025.9,457.6h227.5l1.1-139.5c-6.6,0.6-13.7,1.4-21.1,2.3c-111.9,9.7-199.1,64.4-261.8,122.5
			c-5.2,4.9-10.3,9.8-15.2,14.7c-0.4,0.4-0.7,0.7-1.1,1.1c3.3-0.1,6.7-0.2,10.2-0.3c17.5-0.5,36.3-0.7,56.7-0.7
			C1023.5,457.6,1024.7,457.6,1025.9,457.6"/>
		<path class="st5" d="M1025.9,457.6c-1.2,0-2.4,0-3.6,0c-20.4,0-39.2,0.2-56.7,0.7c-3.4,0.1-6.8,0.2-10.2,0.3
			C817.4,596.3,748.3,596.3,748.3,596.3h504.9V457.6H1025.9z"/>
		<path class="st6" d="M1025.9,457.6c-1.2,0-2.4,0-3.6,0c-20.4,0-39.2,0.2-56.7,0.7c-3.4,0.1-6.8,0.2-10.2,0.3
			C817.4,596.3,748.3,596.3,748.3,596.3h504.9V457.6H1025.9z"/>
	</g>
	<g>
		<defs>
			<rect id="SVGID_3_" x="39.2" y="41.1" width="140" height="122.5"/>
		</defs>
		<clipPath id="SVGID_4_">
			<use xlink:href="#SVGID_3_"  style="overflow:visible;"/>
		</clipPath>
		<path class="st7" d="M42.5,76.3v4.1h1.9c1.4,0,2.2-0.7,2.2-2.1c0-1.2-0.8-2-2.2-2H42.5z M39.2,73.5h5c3.6,0,5.8,1.8,5.8,4.9
			c0,1.9-1,3.4-2.6,4.2l5.1,7.2h-4l-4.3-6.6h-1.7v6.6h-3.3V73.5z"/>
		<path class="st7" d="M57.8,72.1l2.6-3.1h3.4l-3,3.1H57.8z M54.6,73.5h9.5v2.8h-6.2v3.8h5.3v2.8h-5.3v4.1h6.2v2.8h-9.5V73.5z"/>
		<path class="st7" d="M71.2,76.3v4.1h2.2c1.4,0,2.2-0.7,2.2-2.1c0-1.2-0.8-2-2.2-2H71.2z M67.9,73.5h5.4c3.6,0,5.8,1.8,5.8,4.9
			c0,3-2.2,4.8-5.8,4.8h-2.1v6.6h-3.3V73.5z"/>
		<path class="st7" d="M91.4,73.5h3.3v9.9c0,4.3-2.5,6.8-6.6,6.8c-4.1,0-6.6-2.6-6.6-6.8v-9.9h3.3v10.2c0,2.2,1.2,3.5,3.3,3.5
			c2,0,3.3-1.3,3.3-3.5V73.5z"/>
		<path class="st7" d="M102.1,82.7v4.2h1.9c1.5,0,2.5-0.8,2.5-2.2c0-1.3-0.9-2.1-2.5-2.1H102.1z M102.1,76.3v3.6h1.4
			c1.3,0,2-0.6,2-1.8c0-1.1-0.7-1.8-2-1.8H102.1z M98.8,73.5h4.6c3.4,0,5.5,1.7,5.5,4.4c0,1.3-0.6,2.4-1.7,3.2
			c1.7,0.8,2.7,2.2,2.7,3.9c0,3-2.3,4.8-6.1,4.8h-5V73.5z"/>
		<polygon class="st7" points="113.3,73.5 116.6,73.5 116.6,86.8 122.8,86.8 122.8,89.7 113.3,89.7 		"/>
		<rect x="125.7" y="73.5" class="st7" width="3.3" height="16.2"/>
		<path class="st7" d="M146.1,81.6c0-3.1-2.2-5.5-5.2-5.5c-3.1,0-5.3,2.4-5.3,5.5s2.2,5.5,5.3,5.5C143.9,87.1,146.1,84.7,146.1,81.6
			 M150.6,90.9c0.3,0,0.8,0,1.2-0.2v2.8c-0.5,0.2-1,0.3-1.7,0.3c-1.8,0-3.5-0.7-5.1-2.1l-1.9-1.7c-0.7,0.2-1.4,0.3-2.2,0.3
			c-5.1,0-8.7-3.9-8.7-8.6c0-4.6,3.5-8.6,8.7-8.6c5.1,0,8.6,3.9,8.6,8.6c0,2.7-1.2,5.2-3.2,6.8l1,0.9
			C148.5,90.5,149.6,90.9,150.6,90.9"/>
		<path class="st7" d="M162.2,73.5h3.3v9.9c0,4.3-2.5,6.8-6.6,6.8c-4.1,0-6.6-2.6-6.6-6.8v-9.9h3.3v10.2c0,2.2,1.2,3.5,3.3,3.5
			c2,0,3.3-1.3,3.3-3.5V73.5z"/>
		<polygon class="st7" points="169.7,73.5 169.7,89.7 179.2,89.7 179.2,86.9 173,86.9 173,82.9 178.2,82.9 178.2,80.1 173,80.1 
			173,76.3 179.2,76.3 179.2,73.5 		"/>
		<polygon class="st7" points="39.2,96.9 39.2,113.2 42.5,113.2 42.5,106.3 47.8,106.3 47.8,103.5 42.5,103.5 42.5,99.7 48.7,99.7 
			48.7,96.9 		"/>
		<path class="st7" d="M54.9,99.7v4.1h1.9c1.4,0,2.2-0.7,2.2-2.1c0-1.2-0.8-2-2.2-2H54.9z M51.6,96.9h5c3.6,0,5.8,1.8,5.8,4.9
			c0,1.9-1,3.4-2.6,4.2l5.1,7.2h-4l-4.3-6.6h-1.7v6.6h-3.3V96.9z"/>
		<path class="st7" d="M76.2,106.1L74,100l-2.2,6.1H76.2z M71.8,96.9h4.3l6.2,16.2h-3.5l-1.6-4.2h-6.5l-1.6,4.2h-3.5L71.8,96.9z"/>
		<polygon class="st7" points="84.8,96.9 89.1,96.9 96.4,108.6 96.4,96.9 99.7,96.9 99.7,113.2 95.4,113.2 88.1,101.5 88.1,113.2 
			84.8,113.2 		"/>
		<path class="st7" d="M115.8,108.3l2.6,2c-1.3,1.7-3.2,2.9-5.6,3.2l-2,3.4h-2.9l2.1-3.4c-4.2-0.7-7-4.3-7-8.4
			c0-4.6,3.5-8.6,8.7-8.6c3,0,5.4,1.3,6.9,3.3l-2.6,2c-0.9-1.3-2.4-2.2-4.3-2.2c-3.1,0-5.3,2.4-5.3,5.5c0,3.1,2.2,5.5,5.3,5.5
			C113.4,110.6,114.8,109.6,115.8,108.3"/>
		<path class="st7" d="M129.7,106.1l-2.2-6.1l-2.2,6.1H129.7z M125.3,96.9h4.3l6.2,16.2h-3.5l-1.6-4.2h-6.5l-1.6,4.2h-3.5
			L125.3,96.9z"/>
		<rect x="138.3" y="96.9" class="st7" width="3.3" height="16.2"/>
		<path class="st7" d="M147.1,108.7c1,1.3,2.3,2,3.6,2c1.3,0,2.1-0.7,2.1-1.9c0-2.9-7.5-2.3-7.5-7.7c0-2.6,2.1-4.7,5.2-4.7
			c2.4,0,4.3,1.1,5.7,2.7l-2.4,2.2c-1-1.2-2-2-3.3-2c-1.1,0-1.9,0.7-1.9,1.7c0,2.9,7.5,2.2,7.5,7.7c0,3-2.4,4.9-5.4,4.9
			c-2.7,0-4.6-1-6.1-2.7L147.1,108.7z"/>
		<polygon class="st7" points="159.6,96.9 169.1,96.9 169.1,99.7 162.9,99.7 162.9,103.5 168.2,103.5 168.2,106.3 162.9,106.3 
			162.9,110.4 169.1,110.4 169.1,113.2 159.6,113.2 		"/>
		<path class="st7" d="M43.9,163.4L44,163c-1.6-0.3-1.8-0.3-1.2-2l0.6-1.8h1.8c0.8,0,0.8,0.3,0.7,1.2h0.5l1.1-2.9H47
			c-0.4,0.7-0.7,1.2-1.6,1.2h-1.7l0.9-2.5c0.3-0.8,0.5-1,1.5-1h0.8c1.1,0,1.2,0.3,1.2,1.4h0.4l0.4-2h-6.6l-0.1,0.4
			c1.3,0.3,1.4,0.4,0.8,2l-1.4,3.9c-0.6,1.6-0.8,1.8-2.3,2l-0.1,0.4H43.9z M53.1,158.6c0.2-0.8,0.1-1.5-0.5-1.5
			c-0.7,0-0.9,0.5-1.6,2.1v-0.9c0-0.6-0.2-1.2-0.8-1.2c-0.7,0-1.3,1-1.7,2.1h0.3c0.3-0.5,0.6-0.7,0.9-0.7c0.3,0,0.4,0.4,0,1.4
			l-1.3,2.9c-0.2,0.5,0,0.9,0.5,0.9c0.3,0,0.5-0.1,0.6-0.4l1.3-3.3c0.4-0.4,0.7-0.8,1.1-1.3H53.1z M58.9,156.9l-0.5,0l-0.6,0.5h-0.1
			c-2.7,0-5.1,3-5.1,5.3c0,0.6,0.4,1,1,1c0.7,0,1.4-1,2.2-2.1l0,0.4c-0.1,1.1,0.2,1.7,0.8,1.7c0.7,0,1.3-1,1.7-2.1H58
			c-0.3,0.5-0.6,0.7-0.9,0.7c-0.3,0-0.4-0.5,0-1.4L58.9,156.9z M53.9,161.8c0-1.5,1.6-3.5,2.6-3.5c0.2,0,0.4,0,0.6,0.1l-1,2.5
			c-0.5,0.7-1.4,1.5-1.8,1.5C54,162.4,53.9,162.2,53.9,161.8 M59.9,158.1H61l-1.7,4.8c-0.2,0.4,0.1,0.8,0.5,0.8c1,0,2.6-1,3.2-2.3
			h-0.3c-0.4,0.5-1.3,1.1-2,1.2l1.6-4.5h1.6l0.2-0.7h-1.6l0.6-1.7h-0.6l-1.1,1.7l-1.4,0.2V158.1z M67.7,161.3h-0.4
			c-0.5,0.6-1.1,1.1-1.6,1.1c-0.6,0-0.8-0.3-0.8-1.1c0-0.3,0-0.6,0.1-0.9l3.3-1.1c0.6-1.5-0.1-2.2-1-2.2c-1.6,0-3.3,2.6-3.3,4.9
			c0,1,0.5,1.6,1.3,1.6C66,163.6,66.9,162.8,67.7,161.3 M66.6,158c0.4,0,0.8,0.3,0.6,1.2l-2.1,0.5C65.5,158.7,66.1,158,66.6,158
			 M73.9,158.6c0.2-0.8,0.1-1.5-0.5-1.5c-0.7,0-0.9,0.5-1.6,2.1v-0.9c0-0.6-0.2-1.2-0.8-1.2c-0.7,0-1.3,1-1.7,2.1h0.3
			c0.3-0.5,0.6-0.7,0.9-0.7c0.3,0,0.4,0.4,0,1.4l-1.3,2.9c-0.2,0.5,0,0.9,0.5,0.9c0.3,0,0.5-0.1,0.6-0.4l1.3-3.3
			c0.4-0.4,0.7-0.8,1.1-1.3H73.9z M73.9,162.8c-0.2,0.5,0,0.9,0.5,0.9c0.3,0,0.5-0.1,0.6-0.4l1.3-3.3c0.6-0.7,1.8-1.5,2.3-1.5
			c0.3,0,0.3,0.3,0.1,0.7l-1.9,3.7c-0.2,0.4,0.1,0.8,0.5,0.8c1,0,2.1-0.9,2.5-2.1h-0.3c-0.3,0.4-0.8,0.9-1.3,1l1.7-3.4
			c0.2-0.4,0.3-0.8,0.3-1.2c0-0.5-0.3-0.9-0.9-0.9c-0.8,0-1.7,0.9-2.7,2.1v-0.9c0-0.6-0.2-1.2-0.8-1.2c-0.4,0-0.7,0.3-1,0.8v0.1
			c0.6,0,0.9,0.9,0.5,1.9L73.9,162.8z M84.5,155.5c0.4,0,0.8-0.3,0.8-0.8c0-0.4-0.4-0.8-0.8-0.8c-0.4,0-0.8,0.4-0.8,0.8
			C83.7,155.1,84,155.5,84.5,155.5 M84.1,157.8c0.1-0.4-0.2-0.7-0.4-0.7c-1,0-2.1,0.9-2.5,2.1h0.3c0.3-0.4,0.8-0.9,1.3-1l-1.8,4.7
			c-0.2,0.4,0.2,0.7,0.4,0.7c0.9,0,2-0.9,2.4-2.1h-0.3c-0.3,0.4-0.8,0.9-1.3,1L84.1,157.8z M85.6,158.1h1.1l-1.7,4.8
			c-0.2,0.4,0.1,0.8,0.5,0.8c1,0,2.6-1,3.2-2.3h-0.3c-0.4,0.5-1.3,1.1-2,1.2l1.6-4.5h1.6l0.2-0.7h-1.6l0.6-1.7h-0.6l-1.1,1.7
			l-1.4,0.2V158.1z M92.8,156.6l2.3-2.2v-0.3h-1.3l-1.4,2.4H92.8z M93.4,161.3H93c-0.5,0.6-1.1,1.1-1.6,1.1c-0.6,0-0.8-0.3-0.8-1.1
			c0-0.3,0-0.6,0.1-0.9l3.3-1.1c0.6-1.5-0.1-2.2-1-2.2c-1.6,0-3.3,2.6-3.3,4.9c0,1,0.5,1.6,1.3,1.6
			C91.7,163.6,92.7,162.8,93.4,161.3 M92.3,158c0.4,0,0.8,0.3,0.6,1.2l-2.1,0.5C91.2,158.7,91.8,158,92.3,158"/>
		<path class="st7" d="M46.3,139.2l2.3-1.6v-0.2h-1.4l-1.3,1.8H46.3z M45.3,144.2c0.8,0,0.8,0.3,0.7,1.2h0.5l1.1-2.9h-0.5
			c-0.4,0.7-0.7,1.2-1.6,1.2h-1.7l0.9-2.4c0.3-0.8,0.5-1,1.5-1h0.8c1.1,0,1.2,0.3,1.2,1.4h0.4l0.4-2h-6.6l-0.1,0.4
			c1.3,0.3,1.4,0.4,0.8,2l-1.4,3.9c-0.6,1.6-0.8,1.8-2.3,2l-0.1,0.4h7.3l1.3-2.1h-0.5c-0.8,0.8-1.9,1.5-3.4,1.5
			c-1.9,0-1.8-0.1-1.1-1.9l0.7-1.9H45.3z M53.7,149.3c0-0.8-0.7-1-1.8-1.4c-1-0.3-1.4-0.4-1.4-0.7c0-0.3,0.2-0.5,0.6-0.8
			c1.6-0.1,2.6-1.5,2.6-2.7c0-0.2,0-0.5-0.1-0.7h1.3l0.2-0.7H53c-0.3-0.2-0.5-0.2-0.8-0.2c-1.7,0-2.7,1.5-2.7,2.6
			c0,0.9,0.6,1.5,1.3,1.6c-0.8,0.3-1.2,0.8-1.2,1.2c0,0.3,0.1,0.5,0.3,0.6c-1.8,0.5-2.5,1.1-2.5,2c0,0.8,1.1,1.2,2.4,1.2
			C51.9,151.5,53.7,150.3,53.7,149.3 M51.1,146.1c-0.4,0-0.6-0.3-0.6-0.7c0-1.1,0.6-2.6,1.5-2.6c0.4,0,0.6,0.3,0.6,0.7
			C52.6,144.5,52,146.1,51.1,146.1 M48.6,149.9c0-0.6,0.6-1,1.5-1.4c0.3,0.1,0.7,0.3,1.3,0.5c0.9,0.3,1.3,0.4,1.3,0.7
			c0,0.6-1,1-2.3,1C49.2,150.7,48.6,150.5,48.6,149.9 M60.8,142l-0.5,0l-0.6,0.5h-0.1c-2.7,0-5.1,3-5.1,5.3c0,0.6,0.4,1,1,1
			c0.7,0,1.4-1,2.2-2.1l0,0.4c-0.1,1.1,0.2,1.7,0.8,1.7c0.7,0,1.3-1,1.7-2.1h-0.3c-0.3,0.5-0.6,0.7-0.9,0.7c-0.3,0-0.4-0.5,0-1.4
			L60.8,142z M55.8,146.9c0-1.5,1.6-3.5,2.6-3.5c0.2,0,0.4,0,0.6,0.1l-1,2.5c-0.5,0.7-1.4,1.5-1.8,1.5
			C55.9,147.5,55.8,147.3,55.8,146.9 M62.1,147.7l3.3-8.7l-0.1-0.1l-2.1,0.2v0.3l0.4,0.3c0.4,0.3,0.3,0.6-0.1,1.4l-2.6,6.8
			c-0.2,0.4,0.1,0.8,0.5,0.8c1,0,2-0.9,2.4-2.1h-0.3C63.2,147.1,62.6,147.6,62.1,147.7 M68.5,140.6c0.4,0,0.8-0.3,0.8-0.8
			c0-0.4-0.4-0.8-0.8-0.8c-0.4,0-0.8,0.4-0.8,0.8C67.7,140.2,68,140.6,68.5,140.6 M68.1,143c0.1-0.4-0.2-0.7-0.4-0.7
			c-1,0-2.1,0.9-2.5,2.1h0.3c0.3-0.4,0.8-0.9,1.3-1l-1.8,4.7c-0.2,0.4,0.2,0.7,0.4,0.7c0.9,0,2-0.9,2.4-2.1h-0.3
			c-0.3,0.4-0.8,0.9-1.3,1L68.1,143z M69.6,143.2h1.1l-1.7,4.8c-0.2,0.4,0.1,0.8,0.5,0.8c1,0,2.6-1,3.2-2.3h-0.3
			c-0.4,0.5-1.3,1.1-2,1.2l1.6-4.5h1.6l0.2-0.7h-1.6l0.6-1.7h-0.6l-1.1,1.7l-1.4,0.2V143.2z M76.8,141.7l2.3-2.2v-0.3h-1.3l-1.4,2.4
			H76.8z M77.4,146.4H77c-0.5,0.6-1.1,1.1-1.6,1.1c-0.6,0-0.8-0.3-0.8-1.1c0-0.3,0-0.6,0.1-0.9l3.3-1.1c0.6-1.5-0.1-2.2-1-2.2
			c-1.6,0-3.3,2.6-3.3,4.9c0,1,0.5,1.6,1.3,1.6C75.7,148.7,76.6,147.9,77.4,146.4 M76.3,143.1c0.4,0,0.8,0.3,0.6,1.2l-2.1,0.5
			C75.2,143.9,75.8,143.1,76.3,143.1"/>
		<path class="st7" d="M46.7,124.9h-4.4l-0.1,0.4c1.3,0.3,1.4,0.4,0.8,2l-1.4,3.9c-0.6,1.6-0.8,1.8-2.3,2l-0.1,0.4h6.6l1.4-2.5h-0.5
			c-0.8,0.9-1.8,2-3.2,2c-1.1,0-1.2-0.2-0.6-1.9l1.4-3.9c0.6-1.6,0.8-1.8,2.3-2L46.7,124.9z M51.5,125.7c0.4,0,0.8-0.3,0.8-0.8
			c0-0.4-0.4-0.8-0.8-0.8c-0.4,0-0.8,0.4-0.8,0.8C50.7,125.3,51.1,125.7,51.5,125.7 M51.2,128.1c0.1-0.4-0.2-0.7-0.4-0.7
			c-1,0-2.1,0.9-2.5,2.1h0.3c0.3-0.4,0.8-0.9,1.3-1l-1.8,4.7c-0.2,0.4,0.2,0.7,0.4,0.7c0.9,0,2-0.9,2.4-2.1h-0.3
			c-0.3,0.4-0.8,0.9-1.3,1L51.2,128.1z M57.7,128.7c0-1-0.4-1.3-1-1.3c-0.8,0-1.6,0.9-2.4,2l2-5.2l-0.1-0.1l-2.1,0.2v0.3l0.4,0.3
			c0.4,0.3,0.3,0.6-0.1,1.4l-2.2,5.5c-0.2,0.4-0.3,0.9-0.3,1c0,0.6,0.8,1.1,1.5,1.1C55,133.9,57.7,130.9,57.7,128.7 M53.9,132.9
			c-0.3,0-0.8-0.3-0.8-0.6c0-0.1,0.1-0.5,0.3-0.9L54,130c0.6-0.7,1.4-1.4,1.9-1.4c0.3,0,0.5,0.2,0.5,0.6
			C56.5,130.5,55.3,132.9,53.9,132.9 M62.1,131.6h-0.4c-0.5,0.6-1.1,1.1-1.6,1.1c-0.6,0-0.8-0.3-0.8-1.1c0-0.3,0-0.6,0.1-0.9
			l3.3-1.1c0.6-1.5-0.1-2.2-1-2.2c-1.6,0-3.3,2.6-3.3,4.9c0,1,0.5,1.6,1.3,1.6C60.4,133.9,61.3,133,62.1,131.6 M60.9,128.3
			c0.4,0,0.8,0.3,0.6,1.2l-2.1,0.5C59.8,129,60.4,128.3,60.9,128.3 M68.3,128.8c0.2-0.8,0.1-1.5-0.5-1.5c-0.7,0-0.9,0.5-1.6,2.1
			v-0.9c0-0.6-0.2-1.2-0.8-1.2c-0.7,0-1.3,1-1.7,2.1H64c0.3-0.5,0.6-0.7,0.9-0.7c0.3,0,0.4,0.4,0,1.4l-1.3,2.9
			c-0.2,0.5,0,0.9,0.5,0.9c0.3,0,0.5-0.1,0.6-0.4l1.3-3.3c0.4-0.4,0.7-0.8,1.1-1.3H68.3z M69.1,128.3H70l-1.7,4.8
			c-0.2,0.4,0.1,0.8,0.5,0.8c1,0,2.6-1,3.2-2.3h-0.3c-0.4,0.5-1.3,1.1-2,1.2l1.6-4.5h1.6l0.2-0.7h-1.6l0.6-1.7h-0.6l-1.1,1.7
			l-1.1,0.2V128.3z M76,126.8l2.3-2.2v-0.3H77l-1.4,2.4H76z M76.6,131.6h-0.4c-0.5,0.6-1.1,1.1-1.6,1.1c-0.6,0-0.8-0.3-0.8-1.1
			c0-0.3,0-0.6,0.1-0.9l3.3-1.1c0.6-1.5-0.1-2.2-1-2.2c-1.6,0-3.3,2.6-3.3,4.9c0,1,0.5,1.6,1.3,1.6C74.9,133.9,75.9,133,76.6,131.6
			 M75.5,128.3c0.4,0,0.8,0.3,0.6,1.2l-2.1,0.5C74.4,129,75,128.3,75.5,128.3"/>
		<path class="st8" d="M56.6,56.6c0,0,0.1,0,0.2-0.1h-0.3c0,0,0,0,0-0.1c-0.2,0-0.5,0.1-0.7,0.2c-0.3,0.1-0.5,0.3-0.9,0.4
			c-0.5,0.2-0.8,0.5-1.3,0.7c0,0,0,0,0-0.1c0-0.1,0.2-0.2,0.3-0.3c0,0,0-0.1,0-0.1c0.3-0.4,0.8-0.7,1.2-1.1V56
			c0.1-0.2,0.3-0.2,0.4-0.4c0-0.1,0.2-0.3,0.4-0.4c0,0-0.1,0-0.1-0.1c-0.2,0-0.3,0.1-0.5,0c0.1-0.1,0.2-0.1,0.3-0.1
			c0,0-0.1,0-0.1-0.1c0-0.1,0.1-0.2,0.2-0.2c0.2,0,0.4,0,0.5-0.2c-0.3,0-0.6,0.1-0.9-0.1c0.2-0.5,0.5-1,1-1.2c0,0,0.1,0,0.1,0
			c0,0.2-0.1,0.4-0.3,0.4c0.3,0.1,0.7,0.1,1,0.2c0,0.1-0.1,0-0.2,0c0.2,0.1,0.5,0,0.7,0.2c-0.1,0.1-0.2,0-0.4,0
			c1.3,0.4,2.6,0.7,3.7,1.5c-0.9,0.4-1.8,0.7-2.8,0.9c-0.1,0-0.2,0-0.3,0c0,0,0,0.1,0,0.1c-0.2,0-0.3,0-0.4,0.1
			C57,56.7,56.7,56.7,56.6,56.6 M55.8,59.4C55.8,59.4,55.8,59.4,55.8,59.4c-0.2,0.1-0.3,0.2-0.5,0.3c-0.2,0.1-0.4,0.2-0.5,0.3
			c0,0,0,0,0,0c0,0,0,0-0.1,0c-0.2,0.1-0.3,0.2-0.4,0.3c0,0,0,0-0.1,0.1c0,0,0,0,0,0c0,0,0,0,0,0c0,0,0,0-0.1,0.1c0,0,0,0,0,0
			c0,0,0,0,0,0c0,0-0.1,0.1-0.1,0.1c0,0,0,0-0.1,0.1c0,0-0.1,0-0.1,0c0,0,0,0,0,0c0,0,0,0-0.1,0c0,0,0,0-0.1,0c0,0,0,0,0,0
			c0,0,0,0,0,0c-0.1,0-0.1,0.1-0.1,0.1c-0.1,0.1-0.2,0.2-0.2,0.3l0,0c0,0,0,0,0,0c0,0,0,0,0,0c0,0,0,0,0,0c0,0,0,0,0,0c0,0,0,0,0,0
			c0,0,0,0,0,0c0,0,0,0,0,0c0,0,0,0,0,0c0,0,0,0,0,0c0,0,0,0,0-0.1c0,0,0,0,0,0c0,0,0,0,0,0c0,0,0.1-0.1,0.1-0.1c0,0,0,0,0,0
			c0,0,0,0,0-0.1c0,0,0-0.1,0.1-0.1c0,0,0,0,0,0c0-0.1,0.1-0.1,0.1-0.2c0,0,0,0,0,0c0,0,0,0,0,0c0,0,0-0.1,0.1-0.1c0,0,0-0.1,0-0.1
			c0,0,0,0,0,0c0,0,0,0,0,0c0,0,0,0,0,0c0,0,0-0.1,0-0.1c0,0,0,0,0,0c0,0,0,0,0,0c0,0,0,0,0,0v0c0,0,0,0,0,0c0,0,0,0,0-0.1
			c0,0,0,0,0,0c0-0.1,0.1-0.2,0.2-0.2c0,0,0,0,0,0c-0.1,0-0.1,0.1-0.2,0.1c0,0-0.1,0-0.1-0.1c0,0,0.1-0.1,0.1-0.1c0,0,0,0,0,0
			c0.1-0.1,0.1-0.2,0.2-0.2c0,0,0.1-0.1,0.1-0.1c0,0,0,0,0,0c0,0,0.1-0.1,0.1-0.1c0,0,0,0,0,0c0.4-0.4,1.1-0.4,1.6-0.6
			c0.2-0.1,0.5,0,0.7,0c0.1,0,0.2,0,0.4,0.1C56.5,59,56.1,59.2,55.8,59.4 M56.5,59.8c0,0-0.1,0.1-0.1,0.1c0.1,0,0.1,0,0.1,0.1
			c-0.1,0.1-0.2,0.2-0.3,0.2c0,0,0,0-0.1,0c-0.1,0-0.1,0.1-0.2,0.1c0,0-0.3,0-0.2,0c0.1-0.1,0.2-0.2,0.3-0.3
			c0.1-0.1,0.1-0.1,0.2-0.2c0,0,0.1-0.1,0.1-0.1C56.3,59.7,56.6,59.7,56.5,59.8 M54.6,53.7c0,0.1-0.1,0.1-0.1,0.2
			c0,0.1-0.1,0.1-0.2,0.2c0,0-0.1,0-0.1,0C54.3,53.8,54.4,53.6,54.6,53.7C54.6,53.6,54.6,53.6,54.6,53.7 M51.2,56.4
			C51.2,56.4,51.2,56.3,51.2,56.4c0.5-0.8,0.9-1.4,1.3-2.2c0.5-0.3,1-0.7,1.4-1.1c0.7-0.7,1.4-1.4,2.3-1.8c0.3-0.1,0.7-0.1,1.1,0
			c-0.1,0.2-0.3,0.1-0.5,0.2c0,0-0.1,0-0.1,0c0,0,0-0.1,0-0.1c-0.4,0.4-1,0.7-1.3,1.2c-0.2,0.4-0.4,0.9-0.9,1.1c-0.2,0,0-0.1,0-0.1
			C53.1,54.3,52.2,55.2,51.2,56.4 M57.5,57.2c-0.1,0-0.2,0-0.2,0c0-0.2,0.3-0.2,0.5-0.3c0.1,0,0.2-0.1,0.3-0.1
			c0.1,0.1,0.2,0.1,0.3,0.2C58.1,57.2,57.8,57.1,57.5,57.2 M63.8,60.2c0.2-0.2,0.5-0.5,0.7-0.7h0c0.4-0.5,0.9-1,1.4-1.4
			c0.2-0.1,0.3-0.3,0.4-0.4c0,0,0-0.1,0.1-0.2c-0.2,0.1-0.3,0.2-0.5,0.3c0,0-0.1,0,0-0.1c0.1-0.1,0.3-0.2,0.4-0.3c0,0,0,0,0,0
			c0,0,0,0,0-0.1c-0.5-0.1-0.9,0.3-1.3,0.6c-0.1,0-0.2,0-0.2,0c-0.6,0.2-1.1,0.7-1.7,1v-0.1c-0.2,0.1-0.5,0.2-0.7,0.3
			c-0.4,0.1-0.7,0-1,0c-0.5,0-1,0.2-1.5,0.3c0,0,0,0,0,0c-0.3,0.1-0.5,0.2-0.8,0.3c0,0,0,0,0,0c0,0,0,0-0.1,0.1
			c-0.1,0.1-0.2,0.2-0.3,0.2c-0.3,0.1-0.5,0.3-0.7,0.5c0,0,0,0-0.1,0c-0.2,0.2-0.4,0.4-0.7,0.6c0,0-0.1,0-0.1,0c0,0,0,0,0,0
			c0,0,0,0,0,0c0-0.1,0.1-0.1,0.1-0.2c0-0.1,0.1-0.1,0.1-0.2c0.1-0.1,0.1-0.2,0.2-0.2c0,0,0,0,0-0.1c0,0,0,0-0.1,0
			c0.2-0.2,0.4-0.4,0.7-0.5v0c0,0-0.1,0,0,0c0,0,0-0.1,0.1-0.1c0,0,0,0,0,0c0,0,0,0,0,0c-0.1,0-0.1,0.1-0.2,0.1
			c-0.1,0.1-0.2,0.3-0.3,0.3c0,0,0,0-0.1,0c0,0,0,0,0,0c0,0,0,0,0,0c0,0,0,0,0,0c0,0,0,0,0,0c0,0,0,0,0,0c0,0,0,0,0,0c0,0,0,0,0,0
			c0,0,0,0,0-0.1c0,0,0,0,0,0c0,0,0-0.1,0.1-0.1c0,0,0,0,0,0c0,0,0,0,0-0.1c0,0,0-0.1,0-0.1c0.1-0.1,0.2-0.2,0.3-0.2h0
			c0.2-0.1,0.3-0.2,0.5-0.3c0,0,0,0,0.1-0.1c-0.2,0.1-0.4,0.2-0.7,0.3c0,0-0.1,0-0.1,0c0,0,0,0-0.1,0c0,0,0,0,0,0
			c0-0.1,0.2-0.1,0.2-0.2c0,0,0.1,0,0.1,0c1.3-1,3.1-0.8,4.6-1.3c0.1-0.1,0.2-0.2,0.4-0.2c0.2-0.1,0.4-0.3,0.6-0.4
			c0.3-0.2,0.6-0.5,0.7-0.9c0,0,0-0.1,0-0.1c-0.5,0.6-1.1,1-1.8,1.3c-0.9,0.4-1.8,0.4-2.7,0.5c0-0.1,0.1-0.1,0.2-0.1
			c0-0.1,0.1-0.2,0.2-0.2h0.1c0,0,0-0.1,0.1-0.1c0.1,0,0.2,0,0.2,0c-0.1-0.2-0.4,0.1-0.6,0c0.1-0.1,0-0.2,0.1-0.2h0.2
			c0-0.1,0.1-0.2,0.1-0.2c0.6-0.4,1.2-0.7,1.8-1c-0.1,0-0.2,0.1-0.3,0c0.1,0,0-0.1,0.1-0.1c0.5-0.1,0.8-0.4,1.3-0.5
			c-0.2,0-0.3,0.1-0.5,0c0.1,0,0.1-0.1,0.2-0.1v-0.1c0,0,0,0,0.1,0c0,0-0.1,0-0.1,0c0-0.1,0.2,0,0.2-0.1c0,0-0.1,0-0.1,0
			c0.1-0.2,0.3-0.2,0.5-0.2c0-0.1-0.2,0-0.2-0.1c0,0,0,0,0.1,0h-0.1c-0.1,0,0-0.1,0-0.2c0.2-0.3,0.2-0.7,0.4-1c0,0-0.1,0-0.1,0
			c-0.4,0.4-1.1,0.6-1.7,0.8h-0.2c-0.2,0.1-0.5,0.1-0.7,0c-0.2-0.1-0.2-0.2-0.4-0.3c-0.3-0.2-0.7-0.4-1-0.5c-1-0.3-2.1-0.5-3.2-0.4
			c0.5-0.2,0.9-0.3,1.4-0.4c0.7-0.2,1.4-0.4,2.1-0.4c-0.1,0-0.3,0-0.4,0c-0.6,0-1.1,0.1-1.8,0.2c-0.4,0.1-0.8,0.2-1.2,0.3
			c-0.2,0.1-0.4,0.3-0.7,0.3V53c0.4-0.5,0.9-1,1.6-1c0.7-0.1,1.4,0,2.2,0.1c0.5,0,1,0.2,1.6,0.3c0.2,0,0.2,0.3,0.4,0.4
			c0.2,0.1,0.5,0,0.7,0.2c0-0.1,0-0.2,0-0.2c0.2-0.2,0.4,0,0.5,0c0.3-0.2-0.3-0.6-0.5-0.9c0,0,0-0.1,0-0.1c0.3,0.3,0.6,0.6,1,0.8
			c0.2,0.1,0.7,0.2,0.6,0c-0.2-0.4-0.6-0.8-0.9-1.2v-0.2c-0.1,0-0.1,0-0.1-0.1v-0.2c-0.2-0.1-0.1-0.2-0.2-0.4
			c-0.1-0.2,0-0.5-0.1-0.7c-0.1-0.2-0.1-0.4-0.2-0.7c-0.1-0.7-0.3-1.3-0.4-2c-0.1-0.8,0.4-1.4,0.8-2.1c0.3-0.5,0.6-1,1.1-1.3
			c0.1-0.5,0.5-0.9,0.8-1.3c0.3-0.4,0.9-0.6,1.3-0.8c0.6-0.3,1.1-0.4,1.1-0.4H39.2v21.6H59c0.8-0.6,1.6-0.8,2.6-1.4
			C62.2,61.1,63.4,60.6,63.8,60.2"/>
		<path class="st9" d="M98.7,41.1H75.4c0,0,0,0,0.2,0.1c0.2,0.1,0.4,0.2,0.6,0.3c0.3,0.2,0.6,0.4,0.8,0.7c0.1,0.1,0.2,0.4,0.1,0.5
			c-0.1,0.2-0.1,0.5-0.3,0.6c-0.2,0.1-0.6,0.1-0.9,0.1c-0.2,0-0.3,0-0.5-0.1c0.6,0.2,1.2,0.5,1.6,1.1c0,0.1,0.2,0.1,0.4,0.1
			c0,0,0,0.1,0,0.1c-0.1,0.1-0.2,0.1-0.1,0.2h0.1c0.2-0.1,0.2-0.5,0.5-0.4c0.2,0.1,0.3,0.4,0.2,0.6c-0.2,0.2-0.3,0.3-0.5,0.4
			c0,0.1,0,0.2,0,0.3c0.1,0.2,0.2,0.3,0.2,0.5c0.1,0.3,0.2,0.6,0.3,0.9c0.2,0.6,0.3,1.2,0.3,1.8c0,0.3-0.2,0.6,0,0.9
			c0.1,0.3,0.3,0.6,0.5,0.9c0.2,0.2,0.3,0.4,0.5,0.7c0.2,0.4,0.7,0.8,0.5,1.3c-0.1,0.3-0.6,0.2-0.9,0.4c-0.2,0.2,0,0.5,0.1,0.7
			c0.2,0.4-0.2,0.6-0.5,0.7c0.1,0.1,0.2,0.1,0.3,0.2c0,0.2,0.2,0.3,0.1,0.5c-0.2,0.2-0.7,0.4-0.4,0.7c0.2,0.3,0.1,0.6,0,0.9
			c-0.1,0.4-0.5,0.5-0.7,0.6c-0.2,0.1-0.5,0.1-0.8,0c-0.1,0-0.2-0.1-0.2-0.1c-0.7-0.1-1.4-0.3-2.1-0.3c-0.2,0-0.4,0.1-0.6,0.2
			c-0.2,0.1-0.3,0.3-0.5,0.4c0,0,0,0,0,0c0,0-0.1,0.1-0.1,0.1c0,0,0,0-0.1,0.1c0,0,0,0,0,0c-0.1,0.1-0.2,0.3-0.3,0.5c0,0,0,0,0,0
			c0,0,0,0,0,0.1c-0.1,0.2-0.2,0.5-0.3,0.7c-0.3,0.9-0.2,1.7,0,1.9c0.1,0.1,1.4,0.5,2.3,0.9c0.4,0.2,0.7,0.3,1,0.5h22.9V41.1z"/>
		<path class="st10" d="M76.8,49c0.2,0,0.4,0,0.4,0.1c-0.1,0.3-0.6,0.4-0.8,0.7h-0.1c-0.1,0.1-0.1,0.3-0.2,0.3c-0.1,0-0.2,0-0.4,0
			c0.2,0.2,0.4,0.3,0.6,0.2c0,0,0.1,0.1,0.1,0.2c0,0,0,0,0.1,0c0,0,0.1,0,0.1,0v0.2c-0.1,0.2-0.3,0.1-0.5,0.1c0.3,0.1,0.7,0.1,0.9,0
			c0.2-0.1,0-0.5,0.2-0.7c-0.1,0,0-0.1-0.1-0.1c0.1-0.1,0.2-0.2,0.2-0.2c0.1,0,0.2,0,0.2-0.1c0-0.1-0.2-0.1-0.1-0.2
			c0.2-0.2,0.5-0.4,0.4-0.7c0-0.1-0.4-0.1-0.6-0.2c-0.2-0.1-0.5,0-0.7,0c-0.2,0-0.4,0.1-0.6,0.2c-0.3,0.1-0.5,0.2-0.8,0.4
			c0.3-0.1,0.6-0.2,0.9-0.2C76.4,49,76.6,48.9,76.8,49"/>
	</g>
	<g>
		<defs>
			<rect id="SVGID_5_" x="919.7" y="41.1" width="92.5" height="122.5"/>
		</defs>
		<clipPath id="SVGID_6_">
			<use xlink:href="#SVGID_5_"  style="overflow:visible;"/>
		</clipPath>
		<path class="st11" d="M928.3,153.6c-0.8,0-1.4-0.7-1.4-1.5c0-0.8,0.6-1.5,1.4-1.5c0.8,0,1.4,0.7,1.4,1.5
			C929.7,152.9,929.2,153.6,928.3,153.6 M928.3,149.3c-1.7,0-3,1.3-3,2.8c0,1.6,1.2,2.8,2.9,2.8c1.7,0,3-1.3,3-2.8
			C931.3,150.6,930,149.3,928.3,149.3"/>
		<polygon class="st11" points="932.5,149.4 936.9,149.4 936.9,150.7 934,150.7 934,151.7 936.6,151.7 936.6,152.9 934,152.9 
			934,154.9 932.5,154.9 		"/>
		<polygon class="st11" points="938.1,149.4 942.5,149.4 942.5,150.7 939.6,150.7 939.6,151.7 942.2,151.7 942.2,152.9 939.6,152.9 
			939.6,154.9 938.1,154.9 		"/>
		<rect x="943.7" y="149.4" class="st11" width="1.5" height="5.5"/>
		<path class="st11" d="M950.6,152.9c-0.3,0.4-0.7,0.7-1.2,0.7c-0.8,0-1.3-0.6-1.3-1.5c0-0.8,0.5-1.5,1.3-1.5c0.5,0,0.9,0.3,1.2,0.6
			l1.1-0.9c-0.5-0.7-1.2-1.1-2.3-1.1c-1.7,0-2.9,1.3-2.9,2.8c0,1.6,1.3,2.8,2.8,2.8c1.2,0,1.9-0.5,2.4-1.2L950.6,152.9z"/>
		<polygon class="st11" points="952.9,149.4 957.3,149.4 957.3,150.7 954.4,150.7 954.4,151.5 957.1,151.5 957.1,152.7 954.4,152.7 
			954.4,153.6 957.4,153.6 957.4,154.9 952.9,154.9 		"/>
		<polygon class="st11" points="961.5,149.4 965.9,149.4 965.9,150.7 963.1,150.7 963.1,151.7 965.6,151.7 965.6,152.9 963.1,152.9 
			963.1,154.9 961.5,154.9 		"/>
		<path class="st11" d="M969.8,152h-1v-1.3h1c0.5,0,0.8,0.2,0.8,0.7C970.6,151.8,970.3,152,969.8,152 M971,153
			c0.7-0.3,1.1-0.8,1.1-1.7c0-0.5-0.2-1-0.5-1.3c-0.4-0.4-0.9-0.6-1.8-0.6h-2.6v5.5h1.5v-1.7h0.7l1.1,1.7h1.7L971,153z"/>
		<path class="st11" d="M976.5,152.7l-0.6-1.5l-0.6,1.5H976.5z M975.2,149.4h1.5l2.3,5.5h-1.6l-0.4-1h-2.1l-0.4,1h-1.6L975.2,149.4z
			"/>
		<polygon class="st11" points="980,149.4 981.4,149.4 983.7,152.3 983.7,149.4 985.2,149.4 985.2,154.9 983.8,154.9 981.5,151.9 
			981.5,154.9 980,154.9 		"/>
		<path class="st11" d="M990.6,152.9c-0.3,0.4-0.7,0.7-1.2,0.7c-0.8,0-1.3-0.6-1.3-1.5c0-0.8,0.5-1.5,1.3-1.5c0.5,0,0.9,0.3,1.2,0.6
			l1.1-0.9c-0.5-0.7-1.2-1.1-2.3-1.1c-1.7,0-2.9,1.3-2.9,2.8c0,1.4,0.9,2.4,2.1,2.7l-0.6,0.8l1.2,0.5l0.4-1.3c1-0.1,1.7-0.6,2.1-1.2
			L990.6,152.9z"/>
		<path class="st11" d="M995.7,152.7l-0.6-1.5l-0.6,1.5H995.7z M994.4,149.4h1.5l2.3,5.5h-1.6l-0.4-1h-2.1l-0.4,1h-1.6L994.4,149.4z
			"/>
		<rect x="999" y="149.4" class="st11" width="1.5" height="5.5"/>
		<path class="st11" d="M1004.4,151.5c-0.8-0.2-1-0.3-1-0.5c0-0.2,0.2-0.4,0.5-0.4c0.5,0,1,0.2,1.5,0.5l0.8-1.1
			c-0.6-0.5-1.3-0.7-2.2-0.7c-1.3,0-2.1,0.7-2.1,1.8c0,1.1,0.9,1.4,2.1,1.7c0.7,0.2,0.9,0.3,0.9,0.5c0,0.2-0.2,0.4-0.6,0.4
			c-0.6,0-1.2-0.2-1.8-0.7l-0.8,1c0.7,0.6,1.6,0.9,2.6,0.9c1.3,0,2.2-0.7,2.2-1.8C1006.4,152.2,1005.6,151.7,1004.4,151.5"/>
		<path class="st11" d="M921.8,162.2h-0.6v-2.8h0.6c0.9,0,1.5,0.5,1.5,1.4C923.3,161.7,922.7,162.2,921.8,162.2 M921.8,158.1h-2.1
			v5.5h2.1c2,0,3.1-1.2,3.1-2.8C924.9,159.2,923.7,158.1,921.8,158.1"/>
		<polygon class="st11" points="926.1,158.1 926.1,163.5 930.5,163.5 930.5,162.2 927.6,162.2 927.6,161.4 930.2,161.4 930.2,160.2 
			927.6,160.2 927.6,159.4 930.5,159.4 930.5,158.1 		"/>
		<polygon class="st11" points="934.8,158.1 934.8,163.5 938.9,163.5 938.9,162.2 936.3,162.2 936.3,158.1 		"/>
		<path class="st11" d="M942.7,159.8l0.6,1.5H942L942.7,159.8z M941.9,158l-2.3,5.5h1.6l0.4-1h2.1l0.4,1h1.6l-2.3-5.5H941.9z"/>
		<path class="st11" d="M952,162.3h-1.2v-1h1.2c0.5,0,0.7,0.2,0.7,0.5C952.7,162.1,952.5,162.3,952,162.3 M950.8,159.3h1
			c0.4,0,0.7,0.2,0.7,0.5c0,0.3-0.3,0.5-0.7,0.5h-1V159.3z M953.1,160.7c0.5-0.2,0.8-0.6,0.8-1.2c0-0.4-0.1-0.7-0.4-0.9
			c-0.3-0.3-0.8-0.5-1.5-0.5h-2.8v5.5h2.8c1.3,0,2.1-0.6,2.1-1.5C954.2,161.3,953.8,160.9,953.1,160.7"/>
		<rect x="955.4" y="158.1" class="st11" width="1.5" height="5.5"/>
		<path class="st11" d="M961.1,162.3c-0.8,0-1.4-0.7-1.4-1.5c0-0.8,0.6-1.5,1.4-1.5c0.8,0,1.4,0.7,1.4,1.5
			C962.5,161.6,962,162.3,961.1,162.3 M961.1,158c-1.7,0-3,1.3-3,2.8s1.2,2.8,2.9,2.8c1.7,0,3-1.3,3-2.8
			C964.1,159.2,962.8,158,961.1,158"/>
		<path class="st11" d="M967.5,162.2h-0.6v-2.8h0.6c0.9,0,1.5,0.5,1.5,1.4C969,161.7,968.4,162.2,967.5,162.2 M967.4,158.1h-2.1v5.5
			h2.1c2,0,3.1-1.2,3.1-2.8C970.5,159.2,969.4,158.1,967.4,158.1"/>
		<rect x="971.9" y="158.1" class="st11" width="1.5" height="5.5"/>
		<polygon class="st11" points="978.6,158.1 977.3,161.5 976.1,158.1 974.4,158.1 976.6,163.6 978,163.6 980.2,158.1 		"/>
		<polygon class="st11" points="981.3,158.1 981.3,163.5 985.7,163.5 985.7,162.2 982.8,162.2 982.8,161.4 985.4,161.4 985.4,160.2 
			982.8,160.2 982.8,159.4 985.7,159.4 985.7,158.1 		"/>
		<path class="st11" d="M989.8,160.7h-1v-1.3h1c0.5,0,0.8,0.2,0.8,0.7C990.6,160.4,990.3,160.7,989.8,160.7 M991,161.6
			c0.7-0.3,1.1-0.8,1.1-1.7c0-0.5-0.2-1-0.5-1.3c-0.4-0.4-0.9-0.6-1.8-0.6h-2.6v5.5h1.5v-1.7h0.7l1.1,1.7h1.7L991,161.6z"/>
		<path class="st11" d="M995.8,160.1c-0.8-0.2-1-0.3-1-0.5c0-0.2,0.2-0.4,0.5-0.4c0.5,0,1,0.2,1.5,0.5l0.8-1.1
			c-0.6-0.5-1.3-0.7-2.2-0.7c-1.3,0-2.1,0.7-2.1,1.8c0,1.1,0.9,1.4,2.1,1.7c0.7,0.2,0.9,0.3,0.9,0.5c0,0.2-0.2,0.4-0.6,0.4
			c-0.6,0-1.2-0.2-1.8-0.7l-0.8,1c0.7,0.6,1.6,0.9,2.6,0.9c1.3,0,2.2-0.7,2.2-1.8C997.9,160.8,997.1,160.4,995.8,160.1"/>
		<rect x="999.2" y="158.1" class="st11" width="1.5" height="5.5"/>
		<polygon class="st11" points="1001.9,158.1 1001.9,159.4 1003.5,159.4 1003.5,163.5 1005,163.5 1005,159.4 1006.6,159.4 
			1006.6,158.1 		"/>
		<path class="st11" d="M1007.7,158.1v5.5h4.4v-1.3h-2.9v-0.9h2.6v-1.2h-2.6v-0.8h2.9v-1.3H1007.7z M1009.4,157.7h1.1l1.2-0.8
			l-1.4-0.4L1009.4,157.7z"/>
		<polygon class="st11" points="981.9,120 967.4,120 967.4,126.7 978.7,126.7 978.7,133.7 967.4,133.7 967.4,144.5 959.2,144.5 
			959.2,112.9 981.9,112.9 		"/>
		<path class="st11" d="M937.2,120c-4.9,0-8.9,3.7-8.9,8.7c0,5,4.1,8.7,8.9,8.7c4.9,0,8.9-3.7,8.9-8.7
			C946.2,123.7,942.1,120,937.2,120 M954.8,128.7c0,9.4-7.3,16.7-17.6,16.7c-10.3,0-17.6-7.3-17.6-16.7c0-9.4,7.3-16.7,17.6-16.7
			C947.5,112,954.8,119.3,954.8,128.7"/>
		<path class="st11" d="M995.3,138.1h3.8c4.1,0,4.8-2,4.8-3.4c0-1.6-0.9-3.4-4.8-3.4h-3.8V138.1z M995.3,125.3h2.5
			c2.1,0,3.9-0.8,3.9-3.1c0-2-1.4-3.1-3.9-3.1h-2.5V125.3z M987,112.9h12.6c7.6,0,9.5,4.2,9.5,8c0,3.7-1.8,5.7-3.7,6.8
			c2.9,0.6,6.7,2.3,6.7,7.6c0,5.2-3.1,9.3-11.4,9.3H987V112.9z"/>
		<path class="st12" d="M952.1,68C952.1,68.1,952.1,68.1,952.1,68c-5.8,4.8-11.6,5.4-13,5.4h13.3c0,0,5.4,0,16.1-10.7
			C961.3,63,956.9,64.1,952.1,68"/>
		<path class="st13" d="M982.1,86.9c0.2,0.6,0.5,1.2,0.8,1.8c-5.9-1.2-10.7-3.6-14.2-7.1c-8.1-8.1-16.2-8.1-16.2-8.1h16.2
			C968.6,73.4,976.7,73.4,982.1,86.9"/>
		<path class="st14" d="M968.5,62.7C968.6,62.7,968.6,62.7,968.5,62.7c5-5,12.2-9.9,21.6-10.7c2.7,3.1,4.9,6.7,6.3,10.6H974
			C972,62.7,970.2,62.7,968.5,62.7"/>
		<path class="st15" d="M939,73.4c0.4,0,13.6,0.3,21.5,16.1c2.5,5,7.2,11.4,15.9,14.4c-3.3,1.1-6.8,1.7-10.5,1.7
			c-17.9,0-32.3-14.5-32.3-32.3H939L939,73.4"/>
		<path class="st11" d="M965.9,41.1c-17.9,0-32.3,14.5-32.3,32.3h5.5c1.4,0,7.2-0.6,12.9-5.3c3-2.4,6-5.8,8.5-10.8
			c2.5-5,7.2-11.4,15.9-14.4C973.1,41.8,969.6,41.1,965.9,41.1"/>
		<path class="st16" d="M952.4,73.4c0,0,5.4,0,16.1-10.7c1.7-0.1,3.5-0.1,5.5-0.1h22.4c1.2,3.4,1.8,7,1.8,10.8h-29.6H952.4z"/>
		<path class="st17" d="M990.1,52c-9.4,0.8-16.6,5.7-21.5,10.6c0,0-0.1,0.1-0.1,0.1c-7.3,0.3-11.6,1.4-16.4,5.3c0,0-0.1,0-0.1,0.1
			c3-2.4,6-5.8,8.5-10.8c2.5-5,7.2-11.4,15.9-14.4C981.7,44.7,986.5,47.9,990.1,52"/>
		<path class="st18" d="M960.5,89.6c-8-15.9-21.1-16.1-21.5-16.1c0,0,0,0,0,0h13.4c0,0,8.1,0,16.2,8.1c3.6,3.6,8.3,5.9,14.2,7.1
			c1.6,3.5,3.5,6.1,5.7,7.8c-3.4,3.3-7.5,5.9-12.1,7.5C967.7,100.9,963,94.6,960.5,89.6"/>
		<path class="st19" d="M982.8,88.6c-0.3-0.6-0.5-1.1-0.8-1.8c-5.4-13.4-13.5-13.4-13.5-13.4h29.6c0,5.9-1.6,11.4-4.3,16.1h-1.1
			C989.2,89.6,985.9,89.2,982.8,88.6"/>
		<path class="st20" d="M982.8,88.6c3,0.6,6.4,0.9,10,0.9h1.1c-1.5,2.5-3.3,4.9-5.4,6.9C986.3,94.7,984.5,92.2,982.8,88.6"/>
	</g>
</g>
</svg>
